<mxfile host="Electron" modified="2024-01-01T05:27:54.723Z" agent="Mozilla/5.0 (X11; Linux x86_64) AppleWebKit/537.36 (KHTML, like Gecko) draw.io/22.1.16 Chrome/120.0.6099.109 Electron/28.1.0 Safari/537.36" etag="EXP3VSMjBu-1Ywf9nBrA" version="22.1.16" type="device">
  <diagram name="Page-1" id="2PA0bFqOX7xSMKz9NvYx">
    <mxGraphModel dx="818" dy="531" grid="1" gridSize="10" guides="1" tooltips="1" connect="1" arrows="1" fold="1" page="1" pageScale="1" pageWidth="827" pageHeight="1169" math="0" shadow="0">
      <root>
        <mxCell id="0" />
        <mxCell id="1" parent="0" />
        <mxCell id="0b9HW9Ir0IPs19LWbd5Z-1" value="1" style="rounded=0;whiteSpace=wrap;html=1;" vertex="1" parent="1">
          <mxGeometry x="150" y="40" width="150" height="20" as="geometry" />
        </mxCell>
        <mxCell id="0b9HW9Ir0IPs19LWbd5Z-2" value="Before AQE" style="text;html=1;strokeColor=none;fillColor=none;align=center;verticalAlign=middle;whiteSpace=wrap;rounded=0;" vertex="1" parent="1">
          <mxGeometry x="40" y="40" width="80" height="40" as="geometry" />
        </mxCell>
        <mxCell id="0b9HW9Ir0IPs19LWbd5Z-3" value="2" style="rounded=0;whiteSpace=wrap;html=1;" vertex="1" parent="1">
          <mxGeometry x="150" y="60" width="50" height="20" as="geometry" />
        </mxCell>
        <mxCell id="0b9HW9Ir0IPs19LWbd5Z-4" value="3" style="rounded=0;whiteSpace=wrap;html=1;" vertex="1" parent="1">
          <mxGeometry x="150" y="80" width="80" height="20" as="geometry" />
        </mxCell>
        <mxCell id="0b9HW9Ir0IPs19LWbd5Z-22" value="1" style="rounded=0;whiteSpace=wrap;html=1;" vertex="1" parent="1">
          <mxGeometry x="360" y="40" width="40" height="20" as="geometry" />
        </mxCell>
        <mxCell id="0b9HW9Ir0IPs19LWbd5Z-23" value="2" style="rounded=0;whiteSpace=wrap;html=1;" vertex="1" parent="1">
          <mxGeometry x="380" y="60" width="20" height="20" as="geometry" />
        </mxCell>
        <mxCell id="0b9HW9Ir0IPs19LWbd5Z-24" value="3" style="rounded=0;whiteSpace=wrap;html=1;" vertex="1" parent="1">
          <mxGeometry x="340" y="80" width="60" height="20" as="geometry" />
        </mxCell>
        <mxCell id="0b9HW9Ir0IPs19LWbd5Z-27" value="1a" style="rounded=0;whiteSpace=wrap;html=1;" vertex="1" parent="1">
          <mxGeometry x="150" y="160" width="70" height="20" as="geometry" />
        </mxCell>
        <mxCell id="0b9HW9Ir0IPs19LWbd5Z-28" value="After AQE" style="text;html=1;strokeColor=none;fillColor=none;align=center;verticalAlign=middle;whiteSpace=wrap;rounded=0;" vertex="1" parent="1">
          <mxGeometry x="40" y="160" width="80" height="40" as="geometry" />
        </mxCell>
        <mxCell id="0b9HW9Ir0IPs19LWbd5Z-29" value="2" style="rounded=0;whiteSpace=wrap;html=1;" vertex="1" parent="1">
          <mxGeometry x="150" y="200" width="50" height="20" as="geometry" />
        </mxCell>
        <mxCell id="0b9HW9Ir0IPs19LWbd5Z-30" value="3" style="rounded=0;whiteSpace=wrap;html=1;" vertex="1" parent="1">
          <mxGeometry x="150" y="220" width="80" height="20" as="geometry" />
        </mxCell>
        <mxCell id="0b9HW9Ir0IPs19LWbd5Z-31" value="1" style="rounded=0;whiteSpace=wrap;html=1;" vertex="1" parent="1">
          <mxGeometry x="360" y="160" width="40" height="20" as="geometry" />
        </mxCell>
        <mxCell id="0b9HW9Ir0IPs19LWbd5Z-32" value="2" style="rounded=0;whiteSpace=wrap;html=1;" vertex="1" parent="1">
          <mxGeometry x="380" y="200" width="20" height="20" as="geometry" />
        </mxCell>
        <mxCell id="0b9HW9Ir0IPs19LWbd5Z-33" value="3" style="rounded=0;whiteSpace=wrap;html=1;" vertex="1" parent="1">
          <mxGeometry x="340" y="220" width="60" height="20" as="geometry" />
        </mxCell>
        <mxCell id="0b9HW9Ir0IPs19LWbd5Z-41" value="1b" style="rounded=0;whiteSpace=wrap;html=1;" vertex="1" parent="1">
          <mxGeometry x="150" y="180" width="80" height="20" as="geometry" />
        </mxCell>
        <mxCell id="0b9HW9Ir0IPs19LWbd5Z-45" value="1" style="rounded=0;whiteSpace=wrap;html=1;" vertex="1" parent="1">
          <mxGeometry x="360" y="180" width="40" height="20" as="geometry" />
        </mxCell>
      </root>
    </mxGraphModel>
  </diagram>
</mxfile>
